<?xml version="1.0" standalone="no"?>
<!DOCTYPE svg PUBLIC "-//W3C//DTD SVG 20010904//EN"
 "http://www.w3.org/TR/2001/REC-SVG-20010904/DTD/svg10.dtd">
<svg version="1.0" xmlns="http://www.w3.org/2000/svg"
 width="1440.000000pt" height="720.000000pt" viewBox="0 0 1440.000000 720.000000"
 preserveAspectRatio="xMidYMid meet">

<g transform="translate(0.000000,720.000000) scale(0.100000,-0.100000)"
fill="#000000" stroke="none">
<path d="M5555 4580 c-304 -45 -576 -234 -705 -490 -85 -169 -116 -326 -107
-544 6 -172 30 -271 96 -411 128 -268 358 -442 671 -507 127 -27 354 -21 475
12 364 99 615 359 690 715 55 262 14 559 -106 772 -48 85 -163 213 -248 276
-64 47 -183 108 -268 136 -135 45 -350 63 -498 41z m316 -491 c109 -31 214
-120 267 -224 58 -116 75 -306 38 -430 -72 -243 -292 -387 -528 -347 -251 43
-402 236 -402 512 0 198 69 342 209 434 123 82 261 100 416 55z"/>
<path d="M9889 4575 c-258 -49 -482 -192 -618 -395 -113 -168 -161 -342 -161
-580 0 -237 48 -412 160 -579 124 -185 321 -322 550 -381 108 -28 314 -38 432
-20 114 16 265 70 361 127 95 57 224 175 277 252 137 204 198 455 171 715 -44
435 -299 736 -719 848 -102 27 -343 34 -453 13z m355 -487 c203 -66 321 -250
319 -493 -1 -160 -47 -280 -142 -376 -185 -185 -498 -180 -674 11 -92 99 -137
222 -137 375 0 357 307 591 634 483z"/>
<path d="M7710 4561 c-493 -108 -783 -498 -757 -1019 23 -468 309 -801 772
-897 106 -22 313 -22 420 0 364 76 590 294 671 650 14 61 18 123 19 260 l0
180 -450 0 -450 0 -3 -212 -2 -213 200 0 c110 0 200 -4 200 -8 0 -5 -14 -30
-31 -56 -68 -102 -168 -153 -318 -163 -260 -16 -450 120 -507 363 -24 105 -15
287 19 378 54 146 156 247 289 287 57 18 88 20 181 17 97 -3 120 -8 175 -32
64 -30 163 -122 177 -166 6 -19 14 -20 251 -20 l244 0 -6 28 c-71 305 -290
525 -609 612 -115 32 -364 38 -485 11z"/>
<path d="M3330 3605 l0 -955 595 0 595 0 0 220 0 220 -345 0 -345 0 0 735 0
735 -250 0 -250 0 0 -955z"/>
</g>
</svg>
